<?xml version="1.0" encoding="UTF-8"?>
<!DOCTYPE svg PUBLIC "-//W3C//DTD SVG 1.1//EN" "http://www.w3.org/Graphics/SVG/1.1/DTD/svg11.dtd">
<!-- Creator: CorelDRAW X8 -->
<svg xmlns="http://www.w3.org/2000/svg" xml:space="preserve" width="210mm" height="297mm" version="1.1" style="shape-rendering:geometricPrecision; text-rendering:geometricPrecision; image-rendering:optimizeQuality; fill-rule:evenodd; clip-rule:evenodd"
viewBox="0 0 21000 29700"
 xmlns:xlink="http://www.w3.org/1999/xlink">
 <defs>
  <style type="text/css">
   <![CDATA[
    .fil7 {fill:none}
    .fil4 {fill:#228DB9}
    .fil0 {fill:#238CBB}
    .fil1 {fill:#29AAE1}
    .fil6 {fill:#2AAADE}
    .fil3 {fill:#487021}
    .fil5 {fill:#8BC444}
    .fil2 {fill:#8CC542}
   ]]>
  </style>
   <clipPath id="id0">
    <path d="M2518 15907c1819,0 3294,1474 3294,3294 0,1819 -1475,3294 -3294,3294 -1819,0 -3294,-1475 -3294,-3294 0,-1820 1475,-3294 3294,-3294z"/>
   </clipPath>
 </defs>
 <g id="Capa_x0020_1">
  <metadata id="CorelCorpID_0Corel-Layer"/>
  <g>
  </g>
  <g style="clip-path:url(#id0)">
   <g>
    <g id="_2008429890336">
     <path class="fil0" d="M3486 17490c-9,89 -84,302 -123,404l-133 407c-47,149 -83,277 -132,412l-132 398c-1,-2 -5,6 -8,9 -23,-253 -6,-575 -6,-836 0,-204 -23,-649 17,-824 -33,19 -18,2 -26,42l1 1708c69,49 301,396 382,461 34,-22 151,-150 178,-189l2 -2022c-22,33 0,0 -20,30z"/>
     <path class="fil1" d="M3460 17459l-491 1c-40,175 -17,620 -17,824 0,261 -17,583 6,836 3,-3 7,-11 8,-9l132 -398c49,-135 85,-263 132,-412l133 -407c39,-102 114,-315 123,-404 9,-14 24,-29 20,-30 -8,-2 -20,-1 -46,-1z"/>
     <path class="fil2" d="M3411 19796c-19,19 -87,91 -99,73 -47,-13 -246,-130 -306,-169 -52,-34 -103,-56 -152,-86 -55,-35 -101,-62 -160,-93 22,72 394,511 472,612 51,66 101,154 160,189 200,-214 404,-474 598,-684 176,-190 435,-514 594,-679 41,-43 143,-147 161,-198 -38,17 -70,36 -95,62 -38,39 -40,36 -74,66 -217,192 -592,482 -780,657 -55,51 -107,84 -158,133l-98 77c-30,28 -18,26 -63,40z"/>
     <path class="fil1" d="M2240 19372c0,-59 99,-287 124,-361l263 -682c51,-127 98,-226 118,-348l23 0 -1 -29c-80,22 -455,12 -559,6l-2 1455 34 -41z"/>
     <path class="fil3" d="M1039 19775c-16,48 -272,311 -316,370 -27,36 -31,40 -65,73 -26,26 -38,48 -62,77 -75,87 -533,583 -567,648 48,-25 278,-226 346,-288 31,-29 55,-42 90,-74l245 -209c110,-101 222,-182 341,-290 55,-50 304,-249 329,-289l39 4c55,3 206,43 268,61 29,9 229,74 250,51 -85,-83 -477,-491 -542,-526 -57,67 -112,127 -177,197 -47,52 -118,165 -179,195z"/>
     <path class="fil3" d="M3411 19796c45,-14 33,-12 63,-40l98 -77c51,-49 103,-82 158,-133 188,-175 563,-465 780,-657 34,-30 36,-27 74,-66 25,-26 57,-45 95,-62l69 -73c38,16 49,26 78,51 28,24 44,34 81,54l100 -618 -594 244c31,39 112,94 152,113l-1154 1264z"/>
     <path class="fil4" d="M1476 19248c79,76 170,172 235,235 45,43 76,74 122,117 35,32 91,86 118,120 24,-17 49,-49 75,-72l7 -1082 -36 1c16,23 -2,-4 14,32l-397 470c-91,99 -71,133 -142,142l4 37z"/>
     <path class="fil3" d="M1966 19917c88,-28 586,-360 672,-385 36,-26 16,-18 56,-11 59,31 105,58 160,93 49,30 100,52 152,86 60,39 259,156 306,169l-80 -104c-31,-37 -49,-60 -79,-98l-402 -506c-35,-43 -40,-57 -81,-94 -72,69 -195,237 -270,321 -27,29 -59,71 -85,105l-268 324c-23,31 -59,76 -81,100z"/>
     <path class="fil5" d="M1966 19917c-17,-4 -8,2 -29,-8 -21,23 -221,-42 -250,-51 -62,-18 -213,-58 -268,-61 27,48 224,233 275,282 64,60 217,228 283,266l334 -403c45,-55 295,-347 327,-410 -86,25 -584,357 -672,385z"/>
     <path class="fil4" d="M2240 19372l108 -124c36,-41 72,-89 107,-132l215 -254c34,31 60,83 99,105l-1 -986 -23 0c-20,122 -67,221 -118,348l-263 682c-25,74 -124,302 -124,361z"/>
     <path class="fil6" d="M1476 19248l-4 -37c71,-9 51,-43 142,-142l397 -470c-16,-36 2,-9 -14,-32l-528 -1c-2,131 -16,591 7,682z"/>
    </g>
   </g>
  </g>
  <path class="fil7" d="M2518 15907c1819,0 3294,1474 3294,3294 0,1819 -1475,3294 -3294,3294 -1819,0 -3294,-1475 -3294,-3294 0,-1820 1475,-3294 3294,-3294z"/>
 </g>
</svg>
